<?xml version="1.0" encoding="UTF-8"?>
<svg id="Layer_1" xmlns="http://www.w3.org/2000/svg" version="1.1" viewBox="0 0 614.3 136.8">
  <!-- Generator: Adobe Illustrator 30.1.0, SVG Export Plug-In . SVG Version: 2.1.1 Build 136)  -->
  <defs>
    <style>
      .st0 {
        fill: #3a3a3a;
      }
    </style>
  </defs>
  <path class="st0" d="M183.8,60.8h-19.1l-3.4,7.8c-.7,1.3-1.1,2.8-1.2,4.3,0,.4,0,.7.2,1.1.2.4.5.7.8.9.5.3,1.1.6,1.8.7,1,.2,2,.4,2.9.4v1.3h-15.6v-1.3c1.4-.1,2.8-.6,4-1.4.8-.8,1.4-1.7,1.9-2.7.8-1.4,1.5-2.9,2.2-4.5l17.4-40.7h1.3l17.2,41.1c.6,1.4,1.2,2.8,1.9,4.1.5.9,1.1,1.7,1.9,2.4.6.5,1.3.9,2,1.2.9.2,1.8.4,2.6.4v1.3h-19.5v-1.3c.8,0,1.6-.1,2.4-.3.6-.1,1.1-.3,1.6-.7.3-.2.6-.5.8-.9.2-.4.2-.7.2-1.1,0-.7-.1-1.4-.3-2.1-.3-.8-.6-1.8-1.1-3l-3-7.1ZM182.8,58.1l-8.4-20-8.6,20h17Z"/>
  <path class="st0" d="M215.6,50c3.9-4.7,7.6-7.1,11.2-7.1,1.2,0,2.3.2,3.4.6,1.1.4,2.1,1.2,2.8,2.1.9,1.2,1.5,2.5,1.8,3.9.5,2,.7,4,.6,6v14.3c0,1.1,0,2.3.2,3.4,0,.7.4,1.3.8,1.9.4.4,1,.7,1.6.8.8.1,1.7.2,2.5.2v1.3h-16.6v-1.3h.7c.9,0,1.7,0,2.6-.3.6-.2,1.1-.5,1.4-1,.3-.6.6-1.2.6-1.9,0-.8.1-1.8.1-3v-13.7c0-3-.4-5.2-1.2-6.6-.8-1.4-2.4-2.2-4-2.1-2.9,0-5.8,1.6-8.6,4.7v17.6c0,1.4,0,2.8.4,4.2.1.4.3.7.6,1,.2.3.5.5.8.6.4.2.9.3,1.4.3.7,0,1.5,0,2.2,0v1.3h-16.5v-1.3h.7c.7,0,1.5,0,2.1-.3.5-.2,1-.5,1.3-1,.4-.6.6-1.2.7-1.9.1-1,.2-2,.2-3v-12.4c0-2.4,0-4.9-.3-7.3,0-.7-.4-1.3-.8-1.8-.4-.3-1-.5-1.5-.5-.8,0-1.7.2-2.4.5l-.5-1.3,10-4.1h1.6v7.1Z"/>
  <path class="st0" d="M252.9,33v11h7.8v2.5h-7.8v21.6c0,.9,0,1.8.2,2.7.1.6.4,1.2.7,1.7.2.4.6.7,1,.9.4.2.9.2,1.3.2.8,0,1.6-.3,2.3-.8.8-.5,1.4-1.3,1.8-2.2h1.4c-.4,1.1-.9,2.2-1.6,3.1-.6.8-1.2,1.6-2,2.2-.7.6-1.5,1-2.3,1.3-.8.3-1.6.5-2.5.5-.6,0-1.1,0-1.7-.2-.6-.1-1.1-.4-1.6-.6-.5-.3-1-.7-1.4-1.1-.4-.4-.8-1-1-1.5-.6-1.7-.9-3.5-.8-5.4v-22.5h-5.3v-1.2c1.5-.7,2.9-1.6,4.1-2.7,1.5-1.3,2.7-2.9,3.7-4.6.3-.5.6-1.1,1-2s.8-1.9,1.3-3.1h1.1Z"/>
  <path class="st0" d="M273.8,25.5v24.4c.8-.8,1.5-1.5,2.3-2.4.8-.8,1.6-1.6,2.5-2.3.9-.7,1.8-1.2,2.9-1.7,1.1-.5,2.3-.7,3.5-.7,1.5,0,3,.3,4.3,1.2,1.1.8,2,1.8,2.6,3.1.7,1.4,1.1,2.8,1.3,4.3.2,1.7.3,3.3.4,5v13.3c0,1.1,0,2.1,0,2.8,0,.7.2,1.3.5,1.9.4.5.9.9,1.5,1.1,1,.3,1.9.5,2.9.5v1.3h-16.4v-1.3h.8c.9,0,1.7,0,2.6-.3.6-.2,1.1-.5,1.4-1,.4-.6.6-1.2.6-1.9,0-.8.1-1.8.1-3v-16.4c0-1-.2-2-.5-3-.3-.9-.9-1.6-1.6-2.2-.9-.6-2.1-.9-3.2-.8-.6,0-1.2,0-1.8.2-.7.1-1.3.4-1.9.7-.8.4-1.5.9-2.1,1.5-.9.7-1.7,1.5-2.5,2.4v17.7c0,1.2,0,2.1,0,2.8,0,.5.1,1,.3,1.6.1.3.3.6.5.8.3.2.6.4.9.6.4.2.9.4,1.4.4.7,0,1.5.1,2.2.1v1.3h-16.6v-1.3c.8,0,1.6,0,2.4-.2.6,0,1.1-.4,1.6-.8.5-.5.8-1.2.9-1.9.2-1.1.3-2.3.3-3.4v-30.2c0-2.3,0-4.7-.3-7,0-.7-.4-1.3-.8-1.8-.4-.3-1-.5-1.5-.5-.9,0-1.7.3-2.5.6l-.5-1.3,10-4.1h1.7Z"/>
  <path class="st0" d="M317.6,42.9c2.2,0,4.5.5,6.5,1.4,1.9.9,3.7,2.2,5.1,3.7,1.4,1.6,2.6,3.4,3.3,5.4.8,2.1,1.2,4.3,1.2,6.5,0,2.4-.4,4.7-1.2,6.9-.8,2.1-1.9,4.1-3.4,5.8-1.4,1.7-3.2,3.1-5.2,4.1-2.1,1-4.3,1.5-6.6,1.5-2.2,0-4.4-.5-6.4-1.5-1.9-.9-3.6-2.3-5-3.9-1.4-1.6-2.5-3.5-3.2-5.6-.7-2.1-1.1-4.2-1.1-6.4,0-2.3.4-4.5,1.2-6.6.7-2.1,1.9-4.1,3.3-5.8,1.4-1.7,3.1-3.1,5.1-4.1,2-1,4.3-1.6,6.6-1.5ZM316.5,45.3c-1.1,0-2.1.2-3.1.7-1,.5-2,1.3-2.6,2.2-.8,1.2-1.5,2.5-1.8,3.9-.5,1.9-.7,3.9-.7,5.8,0,2.3.2,4.6.8,6.8.4,2,1.1,3.9,2.1,5.7.8,1.5,1.9,2.9,3.3,3.9,1.2,1,2.8,1.5,4.4,1.5,1.1,0,2.2-.2,3.2-.7,1-.5,1.9-1.2,2.6-2.2.8-1.2,1.4-2.6,1.7-4,.4-2,.7-4,.6-6.1,0-2.3-.2-4.6-.7-6.8-.4-1.9-1.1-3.8-2-5.6-.8-1.5-1.9-2.8-3.3-3.8-1.3-.9-2.9-1.4-4.4-1.4Z"/>
  <path class="st0" d="M348.4,50c3.9-4.7,7.6-7.1,11.2-7.1,1.2,0,2.3.2,3.4.6,1.1.4,2,1.2,2.7,2.1.9,1.2,1.5,2.5,1.8,3.9.5,2,.7,4,.6,6v14.3c0,1.1,0,2.3.2,3.4,0,.7.4,1.3.8,1.9.4.4,1,.7,1.6.8.8.1,1.7.2,2.5.2v1.3h-16.5v-1.3h.7c.9,0,1.7,0,2.6-.3.6-.2,1.1-.5,1.4-1,.3-.6.6-1.2.6-1.9,0-.8.1-1.8.1-3v-13.7c0-3-.4-5.2-1.2-6.6-.8-1.4-2.4-2.2-4-2.1-2.9,0-5.8,1.6-8.6,4.7v17.6c0,1.4,0,2.8.4,4.2.1.4.3.7.6,1,.2.3.5.5.8.6.4.2.9.3,1.4.3.7,0,1.5.1,2.2.1v1.3h-16.5v-1.4h.7c.7,0,1.5,0,2.1-.3.5-.2,1-.5,1.3-1,.4-.6.6-1.2.7-1.9.1-1,.2-2,.2-3v-12.4c0-2.4,0-4.9-.3-7.3,0-.7-.4-1.3-.8-1.8-.4-.3-1-.5-1.5-.5-.8,0-1.7.2-2.5.5l-.5-1.3,10.1-4.1h1.6v7.1Z"/>
  <path class="st0" d="M374.1,43.9h15.6v1.3h-.8c-.9,0-1.8.2-2.5.7-.5.4-.8,1.1-.8,1.8.1,1.4.5,2.7,1.2,3.9l8.1,16.9,7.5-18.5c.4-.9.6-2,.6-3,0-.3,0-.5-.1-.8,0-.2-.3-.4-.5-.6-.3-.2-.6-.3-1-.4-.6,0-1.2-.1-1.8-.1v-1.3h10.9v1.3c-.5,0-1.1.1-1.6.3-.4.1-.8.3-1.1.7-.4.4-.8.9-1,1.5-.3.6-.7,1.5-1.2,2.6l-13.6,33.3c-.6,1.5-1.4,2.9-2.3,4.2-.8,1.2-1.8,2.2-2.8,3.1-.9.8-2,1.4-3.1,1.9-1,.4-2,.6-3,.6-1.3,0-2.6-.4-3.5-1.2-.4-.4-.8-.8-1-1.3-.2-.5-.4-1-.4-1.5,0-.9.3-1.8,1-2.5.8-.7,1.7-1,2.8-.9.4,0,.8,0,1.2.2l1.6.5c.5.2,1,.3,1.5.4.3.1.6.2.8.2.4,0,.8,0,1.1-.3.5-.2.9-.5,1.2-.9.5-.5.9-1.1,1.3-1.7.5-.9.9-1.8,1.3-2.7l2.3-5.9-12-25.2c-.2-.4-.4-.7-.6-1.1-.3-.5-.6-.9-.9-1.4s-.6-.9-.9-1.3c-.2-.3-.5-.6-.8-.8-.8-.5-1.7-.8-2.7-1v-1.3Z"/>
  <path class="st0" d="M445,54.2v14.4c0,3.1.3,5,1,5.8,1.1,1.1,2.6,1.7,4.2,1.6h1.9v1.3h-21.2v-1.3h1.9c.9,0,1.8-.2,2.7-.5.7-.3,1.4-.8,1.8-1.5.5-.8.7-2.6.7-5.4v-32c0-3.1-.3-5-1-5.8-1.1-1.1-2.7-1.7-4.2-1.6h-1.9v-1.4h18.1c3.5-.1,7.1.3,10.5,1.4,1.3.5,2.4,1.1,3.5,1.9,1.1.8,2.1,1.7,2.9,2.7.8,1.1,1.5,2.3,2,3.5.5,1.3.7,2.7.7,4.2,0,1.9-.3,3.8-1,5.5-.7,1.6-1.7,3.1-3,4.3-1.4,1.3-3,2.2-4.8,2.8-2.1.7-4.3,1-6.5,1-2.8,0-5.5-.4-8.3-1ZM445,52.1c1.3.2,2.5.4,3.4.5.8.1,1.7.2,2.5.2,1.2,0,2.5-.3,3.6-.8,1.1-.5,2.2-1.3,3-2.2.9-1,1.5-2.1,2-3.3.5-1.4.8-2.8.8-4.2,0-1.6-.2-3.3-.8-4.8-.5-1.3-1.2-2.6-2.2-3.6-.9-1-2.1-1.8-3.3-2.2-1.3-.5-2.7-.8-4.1-.8-.7,0-1.4,0-2.1.2-.9.1-1.8.3-2.6.5v20.6Z"/>
  <path class="st0" d="M483.3,25.5v24.4c.8-.8,1.5-1.5,2.3-2.4.8-.8,1.6-1.6,2.5-2.3.9-.7,1.9-1.3,2.9-1.7,1.1-.5,2.3-.7,3.5-.7,1.5,0,3,.3,4.3,1.2,1.1.8,2,1.8,2.6,3.1.7,1.4,1.1,2.8,1.3,4.3.2,1.7.3,3.3.4,5v13.3c0,1.1,0,2.1,0,2.8,0,.7.2,1.3.5,1.9.4.5.9.9,1.5,1.1.9.3,1.9.4,2.9.5v1.3h-16.4v-1.3h.8c.9,0,1.7,0,2.5-.3.6-.2,1.1-.5,1.4-1,.4-.6.6-1.2.6-1.9,0-.8.1-1.8.1-3v-13.2c0-1,0-2.1,0-3.2,0-1-.2-2-.5-3-.3-.9-.8-1.6-1.6-2.2-.9-.6-2.1-.9-3.2-.8-.6,0-1.2,0-1.8.2-.7.2-1.3.4-1.9.7-.8.4-1.5.9-2.1,1.5-.9.7-1.7,1.5-2.5,2.4v17.7c0,1.2,0,2.1,0,2.8,0,.5.1,1,.3,1.6.1.3.3.6.5.8.3.2.6.4.9.6.4.2.9.4,1.4.4.7,0,1.5.1,2.2.1v1.3h-16.5v-1.3c.8,0,1.6,0,2.4-.2.6,0,1.2-.4,1.6-.8.5-.5.8-1.2.9-1.9.2-1.1.3-2.3.3-3.4v-30.2c0-2.3,0-4.7-.3-7,0-.7-.4-1.3-.8-1.8-.4-.3-1-.5-1.5-.5-.9,0-1.7.3-2.5.6l-.5-1.3,10-4.1h1.7Z"/>
  <path class="st0" d="M540.1,43.9v20.2c0,2.4,0,4.7.2,7.1.1.7.4,1.3.9,1.8.4.3.9.5,1.4.5.9,0,1.8-.2,2.5-.6l.5,1.3-10,4.1h-1.6v-7.1c-2.9,3.1-5.1,5.1-6.6,5.9-1.5.8-3.1,1.2-4.8,1.2-1.8,0-3.5-.5-4.8-1.6-1.4-1.1-2.4-2.5-2.9-4.2-.6-2.4-.9-4.8-.8-7.2v-14.9c0-.9,0-1.8-.3-2.7-.1-.6-.4-1.1-.9-1.6-.5-.4-1-.6-1.6-.7-.8-.1-1.6-.2-2.4-.2h-.4v-1.3h11.7v22.3c0,1.3.1,2.6.5,3.9.2.9.7,1.7,1.3,2.3.5.5,1.1.9,1.8,1.1.7.2,1.4.3,2.1.3.6,0,1.1,0,1.7-.2.7-.2,1.3-.4,1.9-.8.8-.4,1.5-.9,2.2-1.5.9-.7,1.7-1.5,2.5-2.3v-18.9c0-.8,0-1.6-.2-2.3-.1-.6-.4-1.1-.8-1.5-.5-.4-1-.7-1.6-.8-.9-.2-1.8-.3-2.7-.3v-1.4h11.3Z"/>
  <path class="st0" d="M557.9,50c3.9-4.7,7.6-7.1,11.2-7.1,1.2,0,2.3.2,3.4.6,1.1.4,2,1.2,2.7,2.1.9,1.2,1.5,2.5,1.8,3.9.5,2,.7,4,.7,6v14.3c0,1.1,0,2.3.2,3.4,0,.7.4,1.3.8,1.9.4.4,1,.7,1.6.8.8.1,1.7.2,2.5.2v1.3h-16.5v-1.3h.7c.9,0,1.7,0,2.6-.3.6-.2,1.1-.5,1.4-1,.4-.6.6-1.2.6-1.9,0-1,.1-2,.1-3v-13.7c0-3-.4-5.2-1.2-6.6-.8-1.4-2.4-2.2-4-2.1-2.9,0-5.8,1.6-8.6,4.7v17.6c0,1.4,0,2.8.4,4.2.1.4.3.7.6,1,.2.3.5.5.8.6.4.2.9.3,1.4.3.7,0,1.5.1,2.2.1v1.3h-16.5v-1.4h.7c.7,0,1.5,0,2.2-.3.5-.2,1-.5,1.3-1,.4-.6.6-1.2.7-1.9.1-1,.2-2,.2-3v-12.4c0-2.4,0-4.9-.3-7.3,0-.7-.4-1.3-.8-1.8-.4-.3-1-.5-1.5-.5-.8,0-1.7.2-2.5.5l-.5-1.3,10.1-4.1h1.6v7.1Z"/>
  <path class="st0" d="M76.7,77.3c-3.1-5.3-7.2-9.9-12.1-13.7v-21.6c0-4.5-1.1-7.7-3.4-9.5-2.3-1.9-6.8-2.9-13.6-3.1v-6.6h-6.1l-.6,36.2c13.5,2.2,26,8.6,35.6,18.3ZM15.3,64.2c9.3.2,22.1,3.6,25.8,8.4l-.2,23.2c-.1,3.2,1.3,6.3,3.7,8.4,2.4,1.9,5.7,2.9,9.7,2.9h4.7v7.3h5.6v-37.5c-7.6-5.8-16.7-9.2-27.7-11.4-7.1-1.4-14.4-1.8-21.6-1.3Z"/>
  <path class="st0" d="M115.8,59l-.6-36.2h-6.1v6.5c-6.8.2-11.3,1.2-13.6,3.1-2.3,1.9-3.4,5-3.4,9.5v21.6c-4.8,3.8-8.9,8.4-12.1,13.7,9.6-9.7,22.1-16.1,35.6-18.3ZM120.1,65.5c-11,2.1-20.1,5.5-27.8,11.3v37.5h5.6v-7.3h4.7c4.1,0,7.3-1,9.7-2.9,2.4-2.1,3.8-5.2,3.7-8.4l-.2-23.2c3.7-4.8,16.5-8.2,25.8-8.4-7.2-.5-14.5-.1-21.6,1.3h0Z"/>
  <path class="st0" d="M348.5,107.3c-.2-.2-.3-.5-.3-.7,0-.6.4-1,1-1s1,.4,1,1c0,.3-.1.5-.3.7-.4.4-1,.4-1.4,0,0,0,0,0,0,0h0Z"/>
  <g>
    <path class="st0" d="M154.3,106.6c0-3.3,2.5-5.7,5.9-5.7s3.1.5,4.1,1.6l-.8.8c-.9-.9-2-1.3-3.3-1.3-2.7,0-4.7,2-4.7,4.6s2,4.6,4.7,4.6,2.4-.4,3.3-1.3l.8.8c-1,1.1-2.5,1.7-4.1,1.7-3.4,0-5.9-2.4-5.9-5.7Z"/>
    <path class="st0" d="M175.7,112.2l-2.6-3.6c-.3,0-.6,0-.9,0h-3v3.6h-1.2v-11.2h4.2c2.9,0,4.6,1.4,4.6,3.8s-.9,3-2.6,3.5l2.7,3.8h-1.3ZM175.6,104.8c0-1.8-1.2-2.8-3.4-2.8h-3v5.6h3c2.2,0,3.4-1,3.4-2.8Z"/>
    <path class="st0" d="M188.7,111.2v1h-7.9v-11.2h7.7v1h-6.5v4h5.8v1h-5.8v4.2h6.7Z"/>
    <path class="st0" d="M199.8,109.2h-6.2l-1.3,3h-1.2l5.1-11.2h1.2l5.1,11.2h-1.2l-1.3-3ZM199.3,108.3l-2.7-6-2.7,6h5.4Z"/>
    <path class="st0" d="M207,102h-3.9v-1h9.1v1h-3.9v10.2h-1.2v-10.2Z"/>
    <path class="st0" d="M215.3,101h1.2v11.2h-1.2v-11.2Z"/>
    <path class="st0" d="M230.5,101l-5,11.2h-1.2l-5-11.2h1.3l4.3,9.7,4.3-9.7h1.2Z"/>
    <path class="st0" d="M241.3,111.2v1h-7.9v-11.2h7.7v1h-6.5v4h5.8v1h-5.8v4.2h6.7Z"/>
    <path class="st0" d="M250.7,101h4.6c3.6,0,6,2.3,6,5.6s-2.4,5.6-6,5.6h-4.6v-11.2ZM255.2,111.2c3,0,4.9-1.9,4.9-4.6s-1.9-4.6-4.9-4.6h-3.3v9.2h3.3Z"/>
    <path class="st0" d="M273,111.2v1h-7.9v-11.2h7.7v1h-6.5v4h5.8v1h-5.8v4.2h6.7Z"/>
    <path class="st0" d="M275.9,110.9l.5-.9c.8.8,2.2,1.4,3.7,1.4,2.1,0,3-.9,3-2,0-3.1-6.9-1.2-6.9-5.3s1.3-3.1,4.1-3.1,2.6.4,3.5,1l-.4.9c-1-.6-2.1-.9-3.1-.9-2.1,0-3,.9-3,2,0,3.1,6.9,1.2,6.9,5.3s-1.3,3.1-4.2,3.1-3.3-.6-4.2-1.5Z"/>
    <path class="st0" d="M288.1,101h1.2v11.2h-1.2v-11.2Z"/>
    <path class="st0" d="M302,106.6h1.1v4.3c-1.1.9-2.6,1.4-4.1,1.4-3.4,0-5.9-2.4-5.9-5.7s2.5-5.7,5.9-5.7,3.2.5,4.2,1.6l-.7.8c-.9-.9-2.1-1.3-3.4-1.3-2.8,0-4.8,2-4.8,4.6s2,4.6,4.8,4.6,2.1-.2,2.9-.9v-3.8Z"/>
    <path class="st0" d="M317.1,101v11.2h-1l-7.2-9.1v9.1h-1.2v-11.2h1l7.2,9.1v-9.1h1.2Z"/>
  </g>
  <g>
    <path class="st0" d="M381.4,110.9l.5-.9c.8.8,2.2,1.4,3.7,1.4,2.1,0,3-.9,3-2,0-3.1-6.9-1.2-6.9-5.3s1.3-3.1,4.1-3.1,2.6.4,3.5,1l-.4.9c-1-.6-2.1-.9-3.1-.9-2.1,0-3,.9-3,2,0,3.1,6.9,1.2,6.9,5.3s-1.3,3.1-4.2,3.1-3.3-.6-4.2-1.5Z"/>
    <path class="st0" d="M392.5,106.6c0-3.3,2.5-5.7,5.9-5.7s5.9,2.4,5.9,5.7-2.5,5.7-5.9,5.7-5.9-2.4-5.9-5.7ZM403.1,106.6c0-2.7-2-4.6-4.7-4.6s-4.7,2-4.7,4.6,2,4.6,4.7,4.6,4.7-2,4.7-4.6Z"/>
    <path class="st0" d="M409.4,102v4.4h5.8v1h-5.8v4.8h-1.2v-11.2h7.7v1h-6.5Z"/>
    <path class="st0" d="M421.8,102h-3.9v-1h9.1v1h-3.9v10.2h-1.2v-10.2Z"/>
    <path class="st0" d="M445.3,101l-3.8,11.2h-1.3l-3.3-9.6-3.3,9.6h-1.2l-3.8-11.2h1.2l3.2,9.6,3.3-9.6h1.1l3.3,9.7,3.3-9.7h1.1Z"/>
    <path class="st0" d="M455.4,109.2h-6.2l-1.3,3h-1.2l5.1-11.2h1.2l5.1,11.2h-1.3l-1.3-3ZM455,108.3l-2.7-6-2.7,6h5.4Z"/>
    <path class="st0" d="M468.7,112.2l-2.6-3.6c-.3,0-.6,0-.9,0h-3v3.6h-1.2v-11.2h4.2c2.9,0,4.6,1.4,4.6,3.8s-.9,3-2.6,3.5l2.7,3.8h-1.3ZM468.7,104.8c0-1.8-1.2-2.8-3.4-2.8h-3v5.6h3c2.2,0,3.4-1,3.4-2.8Z"/>
    <path class="st0" d="M481.8,111.2v1h-7.9v-11.2h7.7v1h-6.5v4h5.8v1h-5.8v4.2h6.7Z"/>
    <path class="st0" d="M499.1,111.2v1h-7.9v-11.2h7.7v1h-6.5v4h5.8v1h-5.8v4.2h6.7Z"/>
    <path class="st0" d="M512.5,101v11.2h-1l-7.2-9.1v9.1h-1.2v-11.2h1l7.2,9.1v-9.1h1.2Z"/>
    <path class="st0" d="M525.2,106.6h1.1v4.3c-1.1.9-2.6,1.4-4.1,1.4-3.4,0-5.9-2.4-5.9-5.7s2.5-5.7,5.9-5.7,3.2.5,4.2,1.6l-.7.8c-.9-.9-2.1-1.3-3.4-1.3-2.8,0-4.8,2-4.8,4.6s2,4.6,4.8,4.6,2.1-.2,2.9-.9v-3.8Z"/>
    <path class="st0" d="M530.9,101h1.2v11.2h-1.2v-11.2Z"/>
    <path class="st0" d="M546.3,101v11.2h-1l-7.2-9.1v9.1h-1.2v-11.2h1l7.2,9.1v-9.1h1.2Z"/>
    <path class="st0" d="M559.1,111.2v1h-7.9v-11.2h7.7v1h-6.5v4h5.8v1h-5.8v4.2h6.7Z"/>
    <path class="st0" d="M571.1,111.2v1h-7.9v-11.2h7.7v1h-6.5v4h5.8v1h-5.8v4.2h6.7Z"/>
    <path class="st0" d="M582.7,112.2l-2.6-3.6c-.3,0-.6,0-.9,0h-3v3.6h-1.2v-11.2h4.2c2.9,0,4.6,1.4,4.6,3.8s-.9,3-2.6,3.5l2.7,3.8h-1.3ZM582.6,104.8c0-1.8-1.2-2.8-3.4-2.8h-3v5.6h3c2.2,0,3.4-1,3.4-2.8Z"/>
  </g>
</svg>