<svg id="Layer_1" data-name="Layer 1" xmlns="http://www.w3.org/2000/svg" xmlns:xlink="http://www.w3.org/1999/xlink" viewBox="0 0 614.35 136.82"><defs><style>.cls-1{fill:#56bcb5;}.cls-2{fill:url(#linear-gradient);}.cls-3{fill:url(#linear-gradient-2);}.cls-4{fill:url(#linear-gradient-3);}.cls-5{fill:url(#linear-gradient-4);}.cls-6{fill:url(#linear-gradient-5);}.cls-7{fill:url(#radial-gradient);}.cls-8{fill:url(#linear-gradient-6);}.cls-9{fill:url(#linear-gradient-7);}</style><linearGradient id="linear-gradient" x1="41.4" y1="50.03" x2="64.65" y2="50.03" gradientUnits="userSpaceOnUse"><stop offset="0" stop-color="#619095"/><stop offset="1" stop-color="#83b5ca"/></linearGradient><linearGradient id="linear-gradient-2" x1="15.58" y1="89.13" x2="64.96" y2="89.13" gradientUnits="userSpaceOnUse"><stop offset="0.52" stop-color="#83b5ca"/><stop offset="1" stop-color="#619095"/></linearGradient><linearGradient id="linear-gradient-3" x1="80.55" y1="50.03" x2="116.16" y2="50.03" gradientUnits="userSpaceOnUse"><stop offset="0.33" stop-color="#83b5ca"/><stop offset="1" stop-color="#619095"/></linearGradient><linearGradient id="linear-gradient-4" x1="92.61" y1="89.13" x2="141.98" y2="89.13" gradientUnits="userSpaceOnUse"><stop offset="0" stop-color="#619095"/><stop offset="0.47" stop-color="#83b5ca"/></linearGradient><linearGradient id="linear-gradient-5" x1="78.78" y1="22.78" x2="78.78" y2="114.32" gradientUnits="userSpaceOnUse"><stop offset="0" stop-color="#c7d7eb"/><stop offset="1" stop-color="#75a8b6"/></linearGradient><radialGradient id="radial-gradient" cx="78.78" cy="68.55" r="55.18" gradientUnits="userSpaceOnUse"><stop offset="0" stop-color="#f4e8bb"/><stop offset="0.5" stop-color="#f3c1c4" stop-opacity="0.5"/><stop offset="1" stop-color="#c7a2c3" stop-opacity="0"/></radialGradient><linearGradient id="linear-gradient-6" x1="117.3" y1="63.94" x2="117.3" y2="114.32" gradientUnits="userSpaceOnUse"><stop offset="0" stop-color="#c4e1e4"/><stop offset="1" stop-color="#56bcb5"/></linearGradient><linearGradient id="linear-gradient-7" x1="40.27" y1="63.94" x2="40.27" y2="114.32" xlink:href="#linear-gradient-6"/></defs><path class="cls-1" d="M184.08,60.72H164.93l-3.35,7.81a12,12,0,0,0-1.24,4.3,2.83,2.83,0,0,0,.2,1.07,2.12,2.12,0,0,0,.82.92,5.39,5.39,0,0,0,1.75.69,20.28,20.28,0,0,0,3,.42v1.35H150.49V75.93a8.77,8.77,0,0,0,4-1.42,11.28,11.28,0,0,0,2-2.65,47.53,47.53,0,0,0,2.17-4.47L176,26.7h1.28l17.21,41.13a34.43,34.43,0,0,0,2,4.1,9.66,9.66,0,0,0,1.84,2.41,5.33,5.33,0,0,0,2.06,1.19,11.3,11.3,0,0,0,2.64.4v1.35H183.49V75.93a12.53,12.53,0,0,0,2.45-.33,4.78,4.78,0,0,0,1.55-.66,2.36,2.36,0,0,0,.8-.91,2.63,2.63,0,0,0,.24-1.13,6.43,6.43,0,0,0-.35-2.06c-.26-.84-.63-1.84-1.11-3Zm-1-2.7-8.39-20-8.6,20Z"/><path class="cls-1" d="M215.91,50q5.86-7.08,11.19-7.08a9.3,9.3,0,0,1,3.43.62,6.67,6.67,0,0,1,2.74,2.08,10.72,10.72,0,0,1,1.82,3.87,23.07,23.07,0,0,1,.66,6V69.73a18.93,18.93,0,0,0,.23,3.39A3.82,3.82,0,0,0,236.8,75a2.67,2.67,0,0,0,1.57.8,15.5,15.5,0,0,0,2.48.16v1.32H224.33V76h.7a8.77,8.77,0,0,0,2.57-.29,2.53,2.53,0,0,0,1.4-1,4.1,4.1,0,0,0,.6-1.91,28.38,28.38,0,0,0,.13-3V56.06q0-4.56-1.19-6.62a4.22,4.22,0,0,0-4-2.06q-4.34,0-8.64,4.74V69.73a12.9,12.9,0,0,0,.4,4.19,4.78,4.78,0,0,0,.57,1,2.08,2.08,0,0,0,.83.64,5,5,0,0,0,1.39.34,17.06,17.06,0,0,0,2.24.11v1.32H204.82V76h.73a6.56,6.56,0,0,0,2.16-.29,2.59,2.59,0,0,0,1.33-1,4.71,4.71,0,0,0,.67-1.91,20.73,20.73,0,0,0,.18-3V57.33A50.84,50.84,0,0,0,209.6,50a3,3,0,0,0-.82-1.78,2.26,2.26,0,0,0-1.51-.48,7,7,0,0,0-2.45.55L204.28,47l10.06-4.09h1.57Z"/><path class="cls-1" d="M253.21,32.9v11H261v2.55h-7.8V68.09a12.1,12.1,0,0,0,.26,2.72,5,5,0,0,0,.69,1.69,2.36,2.36,0,0,0,1,.86,3.75,3.75,0,0,0,1.33.23,4.14,4.14,0,0,0,2.33-.74,4.78,4.78,0,0,0,1.75-2.21H262a13.76,13.76,0,0,1-1.58,3.14,11.06,11.06,0,0,1-2,2.24,8.37,8.37,0,0,1-2.34,1.35,7.19,7.19,0,0,1-2.48.45,6.61,6.61,0,0,1-1.69-.23,6.24,6.24,0,0,1-1.61-.7,6.54,6.54,0,0,1-1.37-1.11,5.07,5.07,0,0,1-1-1.53,14.12,14.12,0,0,1-.77-5.36V46.43h-5.28v-1.2a14,14,0,0,0,4.1-2.72A21.83,21.83,0,0,0,249.75,38c.26-.46.6-1.11,1-1.95s.84-1.88,1.33-3.12Z"/><path class="cls-1" d="M274.07,25.43V49.86q1.17-1.14,2.31-2.37a20.92,20.92,0,0,1,2.46-2.26,12.86,12.86,0,0,1,2.87-1.68,8.87,8.87,0,0,1,3.52-.66A7.46,7.46,0,0,1,289.56,44a7.91,7.91,0,0,1,2.63,3.06,14.34,14.34,0,0,1,1.29,4.36,36,36,0,0,1,.35,5V69.73c0,1.12,0,2.06.06,2.83a3.58,3.58,0,0,0,.51,1.85,2.74,2.74,0,0,0,1.45,1.08,10.93,10.93,0,0,0,2.94.47v1.32H282.38V76h.77a8.58,8.58,0,0,0,2.55-.29,2.48,2.48,0,0,0,1.38-1,4,4,0,0,0,.59-1.91c.07-.81.11-1.82.11-3V56.49c0-1,0-2.11-.06-3.19a9.44,9.44,0,0,0-.53-2.95,4.64,4.64,0,0,0-1.58-2.19,5.15,5.15,0,0,0-3.19-.86,8.77,8.77,0,0,0-1.83.2,8.15,8.15,0,0,0-1.91.73,13.12,13.12,0,0,0-2.13,1.46,25.42,25.42,0,0,0-2.48,2.39V69.73c0,1.19,0,2.12.07,2.79a6.24,6.24,0,0,0,.27,1.55,1.75,1.75,0,0,0,.55.8,8.46,8.46,0,0,0,.89.55,4.28,4.28,0,0,0,1.43.42,16.87,16.87,0,0,0,2.18.12v1.32H262.91V76a14.28,14.28,0,0,0,2.35-.16,2.89,2.89,0,0,0,1.59-.78,3.76,3.76,0,0,0,.89-1.88,17,17,0,0,0,.27-3.41V39.5a47.58,47.58,0,0,0-.29-7,3,3,0,0,0-.82-1.78,2.24,2.24,0,0,0-1.51-.48,8.22,8.22,0,0,0-2.48.59l-.51-1.28,10-4.08Z"/><path class="cls-1" d="M317.93,42.89a15,15,0,0,1,6.49,1.39A15.91,15.91,0,0,1,329.51,48a16.84,16.84,0,0,1,3.32,5.43A18.13,18.13,0,0,1,334,60a19.64,19.64,0,0,1-1.22,6.91,18.94,18.94,0,0,1-3.41,5.85,16.39,16.39,0,0,1-5.21,4.06,14.63,14.63,0,0,1-6.64,1.52,14.11,14.11,0,0,1-6.43-1.46,15.81,15.81,0,0,1-5-3.88,17.49,17.49,0,0,1-3.21-5.57,19,19,0,0,1-1.13-6.49A19.38,19.38,0,0,1,303,54.27a18.35,18.35,0,0,1,3.3-5.78,16.42,16.42,0,0,1,5.1-4.07A14.17,14.17,0,0,1,317.93,42.89Zm-1.13,2.37a7.35,7.35,0,0,0-3.08.68,7,7,0,0,0-2.62,2.18A12,12,0,0,0,309.25,52a21.17,21.17,0,0,0-.69,5.81,30,30,0,0,0,.75,6.78,21.8,21.8,0,0,0,2.11,5.71,12.28,12.28,0,0,0,3.32,3.92,7.11,7.11,0,0,0,4.36,1.46,7.69,7.69,0,0,0,3.23-.68,6.53,6.53,0,0,0,2.57-2.18,11.5,11.5,0,0,0,1.71-4,25.66,25.66,0,0,0,.62-6.09,31.93,31.93,0,0,0-.69-6.78,20.13,20.13,0,0,0-2-5.56,11.13,11.13,0,0,0-3.28-3.77A7.43,7.43,0,0,0,316.8,45.26Z"/><path class="cls-1" d="M348.67,50q5.86-7.08,11.19-7.08a9.3,9.3,0,0,1,3.43.62A6.67,6.67,0,0,1,366,45.59a10.72,10.72,0,0,1,1.82,3.87,23.07,23.07,0,0,1,.66,6V69.73a18.93,18.93,0,0,0,.23,3.39,3.82,3.82,0,0,0,.82,1.88,2.7,2.7,0,0,0,1.57.8,15.5,15.5,0,0,0,2.48.16v1.32H357.09V76h.7a8.77,8.77,0,0,0,2.57-.29,2.53,2.53,0,0,0,1.4-1,4.1,4.1,0,0,0,.6-1.91,28.38,28.38,0,0,0,.13-3V56.06q0-4.56-1.19-6.62a4.22,4.22,0,0,0-4-2.06q-4.33,0-8.64,4.74V69.73a12.9,12.9,0,0,0,.4,4.19,4.78,4.78,0,0,0,.57,1,2,2,0,0,0,.84.64,4.79,4.79,0,0,0,1.38.34,17.06,17.06,0,0,0,2.24.11v1.32H337.59V76h.73a6.53,6.53,0,0,0,2.15-.29,2.55,2.55,0,0,0,1.33-1,4.57,4.57,0,0,0,.67-1.91,20.73,20.73,0,0,0,.18-3V57.33a50.84,50.84,0,0,0-.29-7.33,3,3,0,0,0-.82-1.78,2.26,2.26,0,0,0-1.51-.48,6.85,6.85,0,0,0-2.44.55L337,47l10.06-4.09h1.57Z"/><path class="cls-1" d="M374.38,43.88H390v1.35h-.77a3.65,3.65,0,0,0-2.46.71,2.23,2.23,0,0,0-.82,1.77,10,10,0,0,0,1.2,3.93l8.13,16.85L402.71,50a7.93,7.93,0,0,0,.62-2.95,2.51,2.51,0,0,0-.11-.77,1.19,1.19,0,0,0-.46-.58,2.58,2.58,0,0,0-1-.39,10.5,10.5,0,0,0-1.77-.12V43.88h10.87v1.35a11.19,11.19,0,0,0-1.57.27,2.75,2.75,0,0,0-1.15.66,5.21,5.21,0,0,0-1,1.45c-.32.65-.72,1.53-1.18,2.65l-13.6,33.32A20,20,0,0,1,390,87.83a16.61,16.61,0,0,1-2.84,3.07,12.17,12.17,0,0,1-3.08,1.86,8.24,8.24,0,0,1-3.05.63,5.41,5.41,0,0,1-2-.34,5.24,5.24,0,0,1-1.55-.91,4.08,4.08,0,0,1-1-1.3,3.32,3.32,0,0,1-.37-1.53,3.22,3.22,0,0,1,1-2.46,3.91,3.91,0,0,1,2.76-.93,4.68,4.68,0,0,1,1.18.22l1.61.45c.54.16,1,.31,1.47.46a4.23,4.23,0,0,0,.84.22A2.94,2.94,0,0,0,386.1,87a4.27,4.27,0,0,0,1.24-.87,8.35,8.35,0,0,0,1.29-1.7A19.15,19.15,0,0,0,390,81.76l2.37-5.8-12-25.19a9.51,9.51,0,0,0-.6-1.08c-.28-.45-.58-.9-.89-1.37s-.64-.88-.95-1.27a4.21,4.21,0,0,0-.8-.8,7.35,7.35,0,0,0-2.7-1Z"/><path class="cls-1" d="M445.26,54.12V68.53q0,4.66,1,5.79a5.25,5.25,0,0,0,4.2,1.61h1.89v1.35H431.19V75.93h1.86a6.57,6.57,0,0,0,2.68-.51,4.08,4.08,0,0,0,1.8-1.53q.74-1.17.73-5.36V36.58c0-3.08-.33-5-1-5.79a5.36,5.36,0,0,0-4.23-1.61h-1.86V27.83h18.12a31.94,31.94,0,0,1,10.46,1.39,14.59,14.59,0,0,1,3.54,1.86,13.91,13.91,0,0,1,2.88,2.75,12.74,12.74,0,0,1,1.95,3.52,11.8,11.8,0,0,1,.71,4.16,14.47,14.47,0,0,1-1,5.52,11.86,11.86,0,0,1-3,4.3,13.58,13.58,0,0,1-4.79,2.81,19.46,19.46,0,0,1-6.5,1A39.39,39.39,0,0,1,445.26,54.12Zm0-2.08c1.31.25,2.46.43,3.45.55a21.34,21.34,0,0,0,2.53.18,8.5,8.5,0,0,0,3.59-.78,9,9,0,0,0,3-2.19,10.94,10.94,0,0,0,2-3.33,11.61,11.61,0,0,0,.75-4.23,13.84,13.84,0,0,0-.8-4.84,10.54,10.54,0,0,0-2.23-3.61,9.46,9.46,0,0,0-3.33-2.24,11.08,11.08,0,0,0-4.14-.76,15.67,15.67,0,0,0-2.14.16,26.2,26.2,0,0,0-2.64.53Z"/><path class="cls-1" d="M483.62,25.43V49.86c.78-.76,1.55-1.55,2.32-2.37a19.45,19.45,0,0,1,2.46-2.26,12.79,12.79,0,0,1,2.86-1.68,8.91,8.91,0,0,1,3.52-.66A7.51,7.51,0,0,1,499.12,44a7.89,7.89,0,0,1,2.62,3.06,14.35,14.35,0,0,1,1.3,4.36,36,36,0,0,1,.34,5V69.73c0,1.12,0,2.06.06,2.83a3.58,3.58,0,0,0,.51,1.85,2.73,2.73,0,0,0,1.46,1.08,10.77,10.77,0,0,0,2.93.47v1.32H491.93V76h.77a8.58,8.58,0,0,0,2.55-.29,2.54,2.54,0,0,0,1.39-1,4.11,4.11,0,0,0,.58-1.91c.07-.81.11-1.82.11-3V56.49c0-1,0-2.11-.05-3.19a10,10,0,0,0-.53-2.95,4.72,4.72,0,0,0-1.59-2.19A5.13,5.13,0,0,0,492,47.3a8.6,8.6,0,0,0-1.82.2,8.05,8.05,0,0,0-1.92.73,13.12,13.12,0,0,0-2.13,1.46,26.6,26.6,0,0,0-2.48,2.39V69.73c0,1.19,0,2.12.07,2.79a5.75,5.75,0,0,0,.28,1.55,1.67,1.67,0,0,0,.54.8,7.76,7.76,0,0,0,.9.55,4.21,4.21,0,0,0,1.42.42A17.15,17.15,0,0,0,489,76v1.32H472.46V76a14.2,14.2,0,0,0,2.35-.16A2.85,2.85,0,0,0,476.4,75a3.76,3.76,0,0,0,.89-1.88,16.21,16.21,0,0,0,.28-3.41V39.5a49.13,49.13,0,0,0-.29-7,3.08,3.08,0,0,0-.82-1.78,2.29,2.29,0,0,0-1.52-.48,8.29,8.29,0,0,0-2.48.59L472,29.51l10-4.08Z"/><path class="cls-1" d="M540.43,43.88V64.11a54.14,54.14,0,0,0,.25,7.11,3.26,3.26,0,0,0,.9,1.79,2.1,2.1,0,0,0,1.4.51,6.72,6.72,0,0,0,2.55-.62l.51,1.28-10,4.12h-1.64V71.22q-4.33,4.68-6.56,5.87a10,10,0,0,1-4.78,1.21,7.66,7.66,0,0,1-4.85-1.59,8.46,8.46,0,0,1-2.88-4.21,25.19,25.19,0,0,1-.8-7.22V50.37a10.67,10.67,0,0,0-.27-2.66,3.06,3.06,0,0,0-.9-1.57,3.2,3.2,0,0,0-1.62-.73,13.91,13.91,0,0,0-2.42-.18h-.44V43.88h11.7V66.23a13.51,13.51,0,0,0,.46,3.9,5.83,5.83,0,0,0,1.22,2.32A3.76,3.76,0,0,0,524,73.54a8.06,8.06,0,0,0,2.1.27,6.7,6.7,0,0,0,1.65-.22,7.84,7.84,0,0,0,1.9-.76,16.51,16.51,0,0,0,2.17-1.46,27.22,27.22,0,0,0,2.55-2.3V50.15a10.24,10.24,0,0,0-.22-2.35,2.83,2.83,0,0,0-.82-1.5,3.51,3.51,0,0,0-1.64-.8,13.28,13.28,0,0,0-2.68-.27V43.88Z"/><path class="cls-1" d="M558.22,50q5.88-7.08,11.2-7.08a9.25,9.25,0,0,1,3.42.62,6.67,6.67,0,0,1,2.74,2.08,10.4,10.4,0,0,1,1.82,3.87,23.07,23.07,0,0,1,.66,6V69.73a18.78,18.78,0,0,0,.24,3.39,3.73,3.73,0,0,0,.82,1.88,2.64,2.64,0,0,0,1.56.8,15.59,15.59,0,0,0,2.48.16v1.32H566.65V76h.69a8.77,8.77,0,0,0,2.57-.29,2.49,2.49,0,0,0,1.4-1,4.1,4.1,0,0,0,.6-1.91,28.38,28.38,0,0,0,.13-3V56.06q0-4.56-1.18-6.62a4.22,4.22,0,0,0-4-2.06q-4.33,0-8.64,4.74V69.73a13.21,13.21,0,0,0,.4,4.19,4.78,4.78,0,0,0,.57,1,2.19,2.19,0,0,0,.84.64,4.79,4.79,0,0,0,1.38.34,17.23,17.23,0,0,0,2.25.11v1.32H547.14V76h.73a6.53,6.53,0,0,0,2.15-.29,2.55,2.55,0,0,0,1.33-1,4.57,4.57,0,0,0,.67-1.91,19.24,19.24,0,0,0,.19-3V57.33a50.21,50.21,0,0,0-.3-7.33,3,3,0,0,0-.82-1.78,2.24,2.24,0,0,0-1.51-.48,6.9,6.9,0,0,0-2.44.55L546.59,47l10.06-4.09h1.57Z"/><path class="cls-1" d="M161.76,101.89a3.85,3.85,0,0,1,0,5.64,5.1,5.1,0,0,1-3.37,1h-3.26v3.73h-.83V100.87h4.09A5.1,5.1,0,0,1,161.76,101.89Zm-.58,5.11a2.79,2.79,0,0,0,1-2.28,2.83,2.83,0,0,0-1-2.29,4.22,4.22,0,0,0-2.79-.81h-3.26v6.18h3.26A4.28,4.28,0,0,0,161.18,107Z"/><path class="cls-1" d="M175.07,100.87v11.41h-.83v-5.43h-7.62v5.43h-.83V100.87h.83v5.25h7.62v-5.25Z"/><path class="cls-1" d="M180.86,111.6a5.6,5.6,0,0,1-2.13-2.08,6,6,0,0,1,0-5.89,5.6,5.6,0,0,1,2.13-2.08,6,6,0,0,1,3-.76,6.13,6.13,0,0,1,3,.75,5.57,5.57,0,0,1,2.13,2.07,6.09,6.09,0,0,1,0,5.93,5.57,5.57,0,0,1-2.13,2.07,6.13,6.13,0,0,1-3,.75A6,6,0,0,1,180.86,111.6Zm5.62-.66a4.7,4.7,0,0,0,1.82-1.8,5.24,5.24,0,0,0,0-5.13,4.7,4.7,0,0,0-1.82-1.8,5.51,5.51,0,0,0-5.19,0,4.66,4.66,0,0,0-1.83,1.8,5.24,5.24,0,0,0,0,5.13,4.66,4.66,0,0,0,1.83,1.8,5.51,5.51,0,0,0,5.19,0Z"/><path class="cls-1" d="M194.72,101.62h-4.1v-.75h9v.75h-4.11v10.66h-.83Z"/><path class="cls-1" d="M203.36,111.6a5.6,5.6,0,0,1-2.13-2.08,6,6,0,0,1,0-5.89,5.6,5.6,0,0,1,2.13-2.08,6,6,0,0,1,3-.76,6.13,6.13,0,0,1,3,.75,5.57,5.57,0,0,1,2.13,2.07,6.09,6.09,0,0,1,0,5.93,5.57,5.57,0,0,1-2.13,2.07,6.13,6.13,0,0,1-3,.75A6,6,0,0,1,203.36,111.6Zm5.62-.66a4.7,4.7,0,0,0,1.82-1.8,5.24,5.24,0,0,0,0-5.13,4.7,4.7,0,0,0-1.82-1.8,5.51,5.51,0,0,0-5.19,0A4.66,4.66,0,0,0,202,104a5.24,5.24,0,0,0,0,5.13,4.66,4.66,0,0,0,1.83,1.8,5.51,5.51,0,0,0,5.19,0Z"/><path class="cls-1" d="M223.35,106.62h.8v4.27a5,5,0,0,1-1.82,1.09,6.73,6.73,0,0,1-2.25.38,6.25,6.25,0,0,1-3.06-.75,5.44,5.44,0,0,1-2.13-2.07,6,6,0,0,1,0-5.93,5.44,5.44,0,0,1,2.13-2.07,6.26,6.26,0,0,1,3.07-.75,6.37,6.37,0,0,1,2.31.4,5,5,0,0,1,1.8,1.16l-.52.56a4.45,4.45,0,0,0-1.61-1,5.84,5.84,0,0,0-2-.31,5.34,5.34,0,0,0-2.65.65,4.71,4.71,0,0,0-1.85,1.8,5,5,0,0,0-.67,2.56,4.94,4.94,0,0,0,2.53,4.36,5.28,5.28,0,0,0,2.64.66,5,5,0,0,0,3.24-1Z"/><path class="cls-1" d="M235.72,112.28,233,108.46a7.74,7.74,0,0,1-1.11.09h-3.26v3.73h-.83V100.87h4.09a5.1,5.1,0,0,1,3.37,1,3.49,3.49,0,0,1,1.22,2.83,3.67,3.67,0,0,1-.69,2.27,3.62,3.62,0,0,1-2,1.29l2.85,4Zm-3.83-4.47a4.26,4.26,0,0,0,2.78-.8,3.21,3.21,0,0,0,0-4.58,4.21,4.21,0,0,0-2.78-.81h-3.26v6.19Z"/><path class="cls-1" d="M246.58,109.07H240l-1.45,3.21h-.9l5.25-11.41h.83L249,112.28h-.9Zm-.31-.7-3-6.59-3,6.59Z"/><path class="cls-1" d="M258.48,101.89a3.87,3.87,0,0,1,0,5.64,5.13,5.13,0,0,1-3.38,1h-3.25v3.73H251V100.87h4.09A5.13,5.13,0,0,1,258.48,101.89Zm-.59,5.11a2.79,2.79,0,0,0,1-2.28,2.83,2.83,0,0,0-1-2.29,4.22,4.22,0,0,0-2.79-.81h-3.25v6.18h3.25A4.28,4.28,0,0,0,257.89,107Z"/><path class="cls-1" d="M271.79,100.87v11.41H271v-5.43h-7.63v5.43h-.83V100.87h.83v5.25H271v-5.25Z"/><path class="cls-1" d="M279.28,108.35v3.93h-.83v-3.93l-4.59-7.48h.91l4.12,6.71,4.12-6.71h.87Z"/><path class="cls-1" d="M289.87,107.27a1,1,0,0,1-.29-.73,1,1,0,1,1,2,0,1,1,0,0,1-1.73.73Z"/><path class="cls-1" d="M307.36,106.62h.79v4.27a4.93,4.93,0,0,1-1.81,1.09,6.79,6.79,0,0,1-2.26.38,6.18,6.18,0,0,1-3.05-.75,5.53,5.53,0,0,1-2.14-2.07,6.09,6.09,0,0,1,0-5.93,5.53,5.53,0,0,1,2.14-2.07,6.23,6.23,0,0,1,3.07-.75,6.35,6.35,0,0,1,2.3.4,5,5,0,0,1,1.8,1.16l-.52.56a4.42,4.42,0,0,0-1.6-1,5.9,5.9,0,0,0-2-.31,5.3,5.3,0,0,0-2.64.65,4.64,4.64,0,0,0-1.85,1.8,5.21,5.21,0,0,0,0,5.11,4.87,4.87,0,0,0,1.85,1.81,5.33,5.33,0,0,0,2.64.66,5,5,0,0,0,3.25-1Z"/><path class="cls-1" d="M319.72,112.28,317,108.46a7.52,7.52,0,0,1-1.11.09h-3.26v3.73h-.83V100.87h4.09a5.13,5.13,0,0,1,3.38,1,3.49,3.49,0,0,1,1.22,2.83,3.49,3.49,0,0,1-2.67,3.56l2.85,4Zm-3.83-4.47a4.28,4.28,0,0,0,2.79-.8,3.21,3.21,0,0,0,0-4.58,4.22,4.22,0,0,0-2.79-.81h-3.26v6.19Z"/><path class="cls-1" d="M330.59,109.07H324l-1.45,3.21h-.89l5.24-11.41h.84L333,112.28h-.89Zm-.31-.7-3-6.59-3,6.59Z"/><path class="cls-1" d="M342.48,101.89a3.87,3.87,0,0,1,0,5.64,5.1,5.1,0,0,1-3.37,1h-3.26v3.73H335V100.87h4.09A5.1,5.1,0,0,1,342.48,101.89ZM341.9,107a2.79,2.79,0,0,0,1-2.28,2.83,2.83,0,0,0-1-2.29,4.22,4.22,0,0,0-2.79-.81h-3.26v6.18h3.26A4.28,4.28,0,0,0,341.9,107Z"/><path class="cls-1" d="M355.79,100.87v11.41H355v-5.43h-7.62v5.43h-.83V100.87h.83v5.25H355v-5.25Z"/><path class="cls-1" d="M359.77,100.87h.83v11.41h-.83Z"/><path class="cls-1" d="M366.38,111.61a5.48,5.48,0,0,1-2.12-2.07,6,6,0,0,1,0-5.93,5.48,5.48,0,0,1,2.12-2.07,6.07,6.07,0,0,1,3-.75,6.28,6.28,0,0,1,2.28.4,4.71,4.71,0,0,1,1.77,1.18l-.52.54a4.77,4.77,0,0,0-3.5-1.35,5.24,5.24,0,0,0-2.61.65A4.75,4.75,0,0,0,365,104a5.31,5.31,0,0,0,0,5.13,4.75,4.75,0,0,0,1.84,1.8,5.24,5.24,0,0,0,2.61.65,4.74,4.74,0,0,0,3.5-1.37l.52.54a4.69,4.69,0,0,1-1.78,1.19,6.27,6.27,0,0,1-2.27.41A6.07,6.07,0,0,1,366.38,111.61Z"/><path class="cls-1" d="M380.43,100.87h4.51a6.68,6.68,0,0,1,3.15.73,5.4,5.4,0,0,1,2.15,2,6.07,6.07,0,0,1,0,5.88,5.26,5.26,0,0,1-2.15,2,6.57,6.57,0,0,1-3.15.74h-4.51Zm4.45,10.66a5.9,5.9,0,0,0,2.78-.63,4.49,4.49,0,0,0,1.86-1.75,5.43,5.43,0,0,0,0-5.15,4.49,4.49,0,0,0-1.86-1.75,5.9,5.9,0,0,0-2.78-.63h-3.62v9.91Z"/><path class="cls-1" d="M401.76,111.53v.75h-7.87V100.87h7.62v.75h-6.79v4.5h6.07v.73h-6.07v4.68Z"/><path class="cls-1" d="M405.4,111.93a4.53,4.53,0,0,1-1.77-1.12l.37-.62a4.62,4.62,0,0,0,1.63,1,5.9,5.9,0,0,0,2.14.4,4.13,4.13,0,0,0,2.46-.62,1.94,1.94,0,0,0,.83-1.62,1.69,1.69,0,0,0-.44-1.22,2.93,2.93,0,0,0-1.09-.7,15.21,15.21,0,0,0-1.76-.5,16.28,16.28,0,0,1-2-.61,3.08,3.08,0,0,1-1.29-.9,2.43,2.43,0,0,1-.53-1.64,2.81,2.81,0,0,1,.44-1.52,3,3,0,0,1,1.34-1.1,5.57,5.57,0,0,1,2.26-.41,6.21,6.21,0,0,1,1.86.28,5.37,5.37,0,0,1,1.58.75l-.31.66a5.36,5.36,0,0,0-1.51-.71,5.46,5.46,0,0,0-1.62-.25,3.84,3.84,0,0,0-2.4.64,2,2,0,0,0-.81,1.64,1.73,1.73,0,0,0,.44,1.23,3.06,3.06,0,0,0,1.09.7c.44.16,1,.33,1.78.52a16.84,16.84,0,0,1,2,.6,3.29,3.29,0,0,1,1.28.89,2.34,2.34,0,0,1,.53,1.6,2.71,2.71,0,0,1-.45,1.52,3,3,0,0,1-1.37,1.09,5.72,5.72,0,0,1-2.29.41A6.78,6.78,0,0,1,405.4,111.93Z"/><path class="cls-1" d="M414.71,100.87h.83v11.41h-.83Z"/><path class="cls-1" d="M427.66,106.62h.8v4.27a5,5,0,0,1-1.82,1.09,6.73,6.73,0,0,1-2.25.38,6.25,6.25,0,0,1-3.06-.75,5.44,5.44,0,0,1-2.13-2.07,6,6,0,0,1,0-5.93,5.44,5.44,0,0,1,2.13-2.07,6.26,6.26,0,0,1,3.07-.75,6.37,6.37,0,0,1,2.31.4,5,5,0,0,1,1.8,1.16l-.52.56a4.45,4.45,0,0,0-1.61-1,5.8,5.8,0,0,0-2-.31,5.34,5.34,0,0,0-2.65.65,4.71,4.71,0,0,0-1.85,1.8,5,5,0,0,0-.67,2.56,4.94,4.94,0,0,0,2.53,4.36,5.28,5.28,0,0,0,2.64.66,5,5,0,0,0,3.24-1Z"/><path class="cls-1" d="M441.4,100.87v11.41h-.69l-7.77-9.91v9.91h-.83V100.87h.7l7.75,9.91v-9.91Z"/><path class="cls-1" d="M449.3,107.27a1,1,0,0,1-.3-.73,1,1,0,0,1,2,0,1,1,0,0,1-.3.73,1,1,0,0,1-1.43,0Z"/><path class="cls-1" d="M467.74,100.87l-5.08,11.41h-.83l-5.09-11.41h.91l4.62,10.33,4.61-10.33Z"/><path class="cls-1" d="M469.58,100.87h.83v11.41h-.83Z"/><path class="cls-1" d="M474.39,100.87h4.51a6.68,6.68,0,0,1,3.15.73,5.4,5.4,0,0,1,2.15,2,6.07,6.07,0,0,1,0,5.88,5.26,5.26,0,0,1-2.15,2,6.57,6.57,0,0,1-3.15.74h-4.51Zm4.45,10.66a5.9,5.9,0,0,0,2.78-.63,4.49,4.49,0,0,0,1.86-1.75,5.43,5.43,0,0,0,0-5.15,4.49,4.49,0,0,0-1.86-1.75,5.9,5.9,0,0,0-2.78-.63h-3.62v9.91Z"/><path class="cls-1" d="M495.72,111.53v.75h-7.87V100.87h7.62v.75h-6.79v4.5h6.07v.73h-6.07v4.68Z"/><path class="cls-1" d="M500.49,111.6a5.6,5.6,0,0,1-2.13-2.08,6,6,0,0,1,0-5.89,5.6,5.6,0,0,1,2.13-2.08,6,6,0,0,1,3-.76,6.13,6.13,0,0,1,3,.75,5.57,5.57,0,0,1,2.13,2.07,6.09,6.09,0,0,1,0,5.93,5.57,5.57,0,0,1-2.13,2.07,6.13,6.13,0,0,1-3,.75A6,6,0,0,1,500.49,111.6Zm5.62-.66a4.79,4.79,0,0,0,1.83-1.8,5.31,5.31,0,0,0,0-5.13,4.79,4.79,0,0,0-1.83-1.8,5.11,5.11,0,0,0-2.59-.65,5.17,5.17,0,0,0-2.6.65,4.66,4.66,0,0,0-1.83,1.8,5.24,5.24,0,0,0,0,5.13,4.66,4.66,0,0,0,1.83,1.8,5.17,5.17,0,0,0,2.6.65A5.11,5.11,0,0,0,506.11,110.94Z"/><path class="cls-1" d="M520.48,106.62h.8v4.27a5,5,0,0,1-1.82,1.09,6.73,6.73,0,0,1-2.25.38,6.25,6.25,0,0,1-3.06-.75,5.44,5.44,0,0,1-2.13-2.07,6,6,0,0,1,0-5.93,5.44,5.44,0,0,1,2.13-2.07,6.26,6.26,0,0,1,3.07-.75,6.37,6.37,0,0,1,2.31.4,5,5,0,0,1,1.8,1.16l-.52.56a4.45,4.45,0,0,0-1.61-1,5.84,5.84,0,0,0-2-.31,5.34,5.34,0,0,0-2.65.65,4.71,4.71,0,0,0-1.85,1.8,5,5,0,0,0-.67,2.56,4.94,4.94,0,0,0,2.53,4.36,5.28,5.28,0,0,0,2.64.66,5,5,0,0,0,3.24-1Z"/><path class="cls-1" d="M532.85,112.28l-2.72-3.82a7.63,7.63,0,0,1-1.11.09h-3.26v3.73h-.83V100.87H529a5.1,5.1,0,0,1,3.37,1,3.46,3.46,0,0,1,1.22,2.83,3.67,3.67,0,0,1-.69,2.27,3.62,3.62,0,0,1-2,1.29l2.85,4ZM529,107.81a4.25,4.25,0,0,0,2.78-.8,3.19,3.19,0,0,0,0-4.58,4.19,4.19,0,0,0-2.78-.81h-3.26v6.19Z"/><path class="cls-1" d="M543.71,109.07H537.1l-1.45,3.21h-.9L540,100.87h.83l5.25,11.41h-.9Zm-.31-.7-3-6.59-3,6.59Z"/><path class="cls-1" d="M555.61,101.89a3.87,3.87,0,0,1,0,5.64,5.12,5.12,0,0,1-3.37,1H549v3.73h-.83V100.87h4.09A5.12,5.12,0,0,1,555.61,101.89ZM555,107a2.79,2.79,0,0,0,1-2.28,2.83,2.83,0,0,0-1-2.29,4.21,4.21,0,0,0-2.78-.81H549v6.18h3.26A4.26,4.26,0,0,0,555,107Z"/><path class="cls-1" d="M568.92,100.87v11.41h-.83v-5.43h-7.63v5.43h-.83V100.87h.83v5.25h7.63v-5.25Z"/><path class="cls-1" d="M576.41,108.35v3.93h-.83v-3.93L571,100.87h.91l4.12,6.71,4.13-6.71H581Z"/><path class="cls-2" d="M77,77.29A49.82,49.82,0,0,0,65,63.57V41.93q0-6.75-3.39-9.53T48,29.32V22.78H42L41.4,58.94A64.47,64.47,0,0,1,77,77.29Z"/><path class="cls-3" d="M15.58,64.14c9.32.14,22.11,3.55,25.79,8.38l-.19,23.23a10.49,10.49,0,0,0,3.71,8.36Q48.51,107,54.61,107h4.72v7.33H65V76.78C57.33,71,48.2,67.56,37.2,65.4A82.33,82.33,0,0,0,15.58,64.14Z"/><path class="cls-4" d="M116.16,58.94l-.56-36.16h-6v6.54Q99.38,29.62,96,32.4t-3.39,9.53V63.57A49.82,49.82,0,0,0,80.55,77.29,64.44,64.44,0,0,1,116.16,58.94Z"/><path class="cls-5" d="M120.37,65.4c-11,2.16-20.13,5.61-27.76,11.38v37.54h5.62V107H103q6.09,0,9.72-2.88a10.49,10.49,0,0,0,3.71-8.36l-.2-23.23c3.69-4.83,16.47-8.24,25.79-8.38A82.26,82.26,0,0,0,120.37,65.4Z"/><path class="cls-6" d="M41.4,58.94,42,22.78h6v6.54q10.17.3,13.56,3.08T65,41.93V63.57A49.82,49.82,0,0,1,77,77.29,64.47,64.47,0,0,0,41.4,58.94Zm-25.82,5.2c9.32.14,22.11,3.55,25.79,8.38l-.19,23.23a10.49,10.49,0,0,0,3.71,8.36Q48.51,107,54.61,107h4.72v7.33H65V76.78C57.33,71,48.2,67.56,37.2,65.4A82.33,82.33,0,0,0,15.58,64.14Zm100.58-5.2-.56-36.16h-6v6.54Q99.38,29.62,96,32.4t-3.39,9.53V63.57A49.82,49.82,0,0,0,80.55,77.29,64.44,64.44,0,0,1,116.16,58.94Zm4.21,6.46c-11,2.16-20.13,5.61-27.76,11.38v37.54h5.62V107H103q6.09,0,9.72-2.88a10.49,10.49,0,0,0,3.71-8.36l-.2-23.23c3.69-4.83,16.47-8.24,25.79-8.38A82.26,82.26,0,0,0,120.37,65.4Z"/><path class="cls-7" d="M41.4,58.94,42,22.78h6v6.54q10.17.3,13.56,3.08T65,41.93V63.57A49.82,49.82,0,0,1,77,77.29,64.47,64.47,0,0,0,41.4,58.94Zm-25.82,5.2c9.32.14,22.11,3.55,25.79,8.38l-.19,23.23a10.49,10.49,0,0,0,3.71,8.36Q48.51,107,54.61,107h4.72v7.33H65V76.78C57.33,71,48.2,67.56,37.2,65.4A82.33,82.33,0,0,0,15.58,64.14Zm100.58-5.2-.56-36.16h-6v6.54Q99.38,29.62,96,32.4t-3.39,9.53V63.57A49.82,49.82,0,0,0,80.55,77.29,64.44,64.44,0,0,1,116.16,58.94Zm4.21,6.46c-11,2.16-20.13,5.61-27.76,11.38v37.54h5.62V107H103q6.09,0,9.72-2.88a10.49,10.49,0,0,0,3.71-8.36l-.2-23.23c3.69-4.83,16.47-8.24,25.79-8.38A82.26,82.26,0,0,0,120.37,65.4Z"/><path class="cls-8" d="M120.37,65.4c-11,2.16-20.13,5.61-27.76,11.38v37.54h5.62V107H103q6.09,0,9.72-2.88a10.49,10.49,0,0,0,3.71-8.36l-.2-23.23c3.69-4.83,16.47-8.24,25.79-8.38A82.26,82.26,0,0,0,120.37,65.4Z"/><path class="cls-9" d="M15.58,64.14c9.32.14,22.11,3.55,25.79,8.38l-.19,23.23a10.49,10.49,0,0,0,3.71,8.36Q48.51,107,54.61,107h4.72v7.33H65V76.78C57.33,71,48.2,67.56,37.2,65.4A82.33,82.33,0,0,0,15.58,64.14Z"/></svg>