<svg xmlns="http://www.w3.org/2000/svg" xmlns:xlink="http://www.w3.org/1999/xlink" viewBox="0 0 138.66 138.66"><defs><style>.cls-1{fill:none;}.cls-2{fill:url(#linear-gradient);}.cls-3{fill:url(#linear-gradient-2);}.cls-4{fill:url(#linear-gradient-3);}.cls-5{fill:url(#linear-gradient-4);}.cls-6{fill:url(#linear-gradient-5);}.cls-7{fill:url(#linear-gradient-6);}.cls-8{clip-path:url(#clip-path);}.cls-9{fill:url(#linear-gradient-7);}.cls-10{fill:url(#radial-gradient);}</style><linearGradient id="linear-gradient" x1="31.95" y1="50.81" x2="55.19" y2="50.81" gradientUnits="userSpaceOnUse"><stop offset="0" stop-color="#619095"/><stop offset="1" stop-color="#83b5ca"/></linearGradient><linearGradient id="linear-gradient-2" x1="6.13" y1="89.91" x2="55.5" y2="89.91" gradientUnits="userSpaceOnUse"><stop offset="0.52" stop-color="#83b5ca"/><stop offset="1" stop-color="#619095"/></linearGradient><linearGradient id="linear-gradient-3" x1="71.1" y1="50.81" x2="106.71" y2="50.81" gradientUnits="userSpaceOnUse"><stop offset="0.33" stop-color="#83b5ca"/><stop offset="1" stop-color="#619095"/></linearGradient><linearGradient id="linear-gradient-4" x1="83.15" y1="89.91" x2="132.53" y2="89.91" gradientUnits="userSpaceOnUse"><stop offset="0" stop-color="#619095"/><stop offset="0.47" stop-color="#83b5ca"/></linearGradient><linearGradient id="linear-gradient-5" x1="107.84" y1="64.72" x2="107.84" y2="115.1" gradientUnits="userSpaceOnUse"><stop offset="0" stop-color="#c4e1e4"/><stop offset="1" stop-color="#56bcb5"/></linearGradient><linearGradient id="linear-gradient-6" x1="30.82" y1="64.72" x2="30.82" y2="115.1" xlink:href="#linear-gradient-5"/><clipPath id="clip-path"><path class="cls-1" d="M23.33,61.33s1-1,16,4,27,19,27,19h6.45s10.55-15,20.55-19a85.5,85.5,0,0,1,21-5l5-4-2-33h-87Z"/></clipPath><linearGradient id="linear-gradient-7" x1="69.33" y1="23.56" x2="69.33" y2="115.1" gradientUnits="userSpaceOnUse"><stop offset="0" stop-color="#c7d7eb"/><stop offset="1" stop-color="#75a8b6"/></linearGradient><radialGradient id="radial-gradient" cx="69.33" cy="69.33" r="55.18" gradientUnits="userSpaceOnUse"><stop offset="0" stop-color="#f4e8bb"/><stop offset="0.5" stop-color="#f3c1c4" stop-opacity="0.5"/><stop offset="1" stop-color="#c7a2c3" stop-opacity="0"/></radialGradient></defs><g id="Layer_2" data-name="Layer 2"><path class="cls-2" d="M67.56,78.07A49.82,49.82,0,0,0,55.5,64.35V42.71q0-6.75-3.39-9.53T38.56,30.1V23.56H32.51L32,59.72A64.5,64.5,0,0,1,67.56,78.07Z"/><path class="cls-3" d="M6.13,64.92c9.32.14,22.1,3.56,25.79,8.38l-.2,23.23a10.52,10.52,0,0,0,3.71,8.36q3.63,2.88,9.73,2.88h4.72v7.33H55.5V77.56c-7.63-5.77-16.75-9.22-27.76-11.38A82.26,82.26,0,0,0,6.13,64.92Z"/><path class="cls-4" d="M106.71,59.72l-.56-36.16H100.1V30.1q-10.17.3-13.56,3.08t-3.39,9.53V64.35A49.71,49.71,0,0,0,71.1,78.07,64.5,64.5,0,0,1,106.71,59.72Z"/><path class="cls-5" d="M110.92,66.18c-11,2.16-20.14,5.61-27.77,11.38V115.1h5.63v-7.33H93.5q6.1,0,9.72-2.88a10.49,10.49,0,0,0,3.71-8.36l-.19-23.23c3.68-4.82,16.47-8.24,25.79-8.38A82.23,82.23,0,0,0,110.92,66.18Z"/><path class="cls-6" d="M110.92,66.18c-11,2.16-20.14,5.61-27.77,11.38V115.1h5.63v-7.33H93.5q6.1,0,9.72-2.88a10.49,10.49,0,0,0,3.71-8.36l-.19-23.23c3.68-4.82,16.47-8.24,25.79-8.38A82.23,82.23,0,0,0,110.92,66.18Z"/><path class="cls-7" d="M6.13,64.92c9.32.14,22.1,3.56,25.79,8.38l-.2,23.23a10.52,10.52,0,0,0,3.71,8.36q3.63,2.88,9.73,2.88h4.72v7.33H55.5V77.56c-7.63-5.77-16.75-9.22-27.76-11.38A82.26,82.26,0,0,0,6.13,64.92Z"/><g class="cls-8"><path class="cls-9" d="M32,59.72l.56-36.16h6.05V30.1q10.17.3,13.55,3.08t3.39,9.53V64.35A49.82,49.82,0,0,1,67.56,78.07,64.5,64.5,0,0,0,32,59.72ZM6.13,64.92c9.32.14,22.1,3.56,25.79,8.38l-.2,23.23a10.52,10.52,0,0,0,3.71,8.36q3.63,2.88,9.73,2.88h4.72v7.33H55.5V77.56c-7.63-5.77-16.75-9.22-27.76-11.38A82.26,82.26,0,0,0,6.13,64.92Zm100.58-5.2-.56-36.16H100.1V30.1q-10.17.3-13.56,3.08t-3.39,9.53V64.35A49.71,49.71,0,0,0,71.1,78.07,64.5,64.5,0,0,1,106.71,59.72Zm4.21,6.46c-11,2.16-20.14,5.61-27.77,11.38V115.1h5.63v-7.33H93.5q6.1,0,9.72-2.88a10.49,10.49,0,0,0,3.71-8.36l-.19-23.23c3.68-4.82,16.47-8.24,25.79-8.38A82.23,82.23,0,0,0,110.92,66.18Z"/><path class="cls-10" d="M32,59.72l.56-36.16h6.05V30.1q10.17.3,13.55,3.08t3.39,9.53V64.35A49.82,49.82,0,0,1,67.56,78.07,64.5,64.5,0,0,0,32,59.72ZM6.13,64.92c9.32.14,22.1,3.56,25.79,8.38l-.2,23.23a10.52,10.52,0,0,0,3.71,8.36q3.63,2.88,9.73,2.88h4.72v7.33H55.5V77.56c-7.63-5.77-16.75-9.22-27.76-11.38A82.26,82.26,0,0,0,6.13,64.92Zm100.58-5.2-.56-36.16H100.1V30.1q-10.17.3-13.56,3.08t-3.39,9.53V64.35A49.71,49.71,0,0,0,71.1,78.07,64.5,64.5,0,0,1,106.71,59.72Zm4.21,6.46c-11,2.16-20.14,5.61-27.77,11.38V115.1h5.63v-7.33H93.5q6.1,0,9.72-2.88a10.49,10.49,0,0,0,3.71-8.36l-.19-23.23c3.68-4.82,16.47-8.24,25.79-8.38A82.23,82.23,0,0,0,110.92,66.18Z"/></g></g></svg>